0
SECTION
2
HEADER
9
$INSUNITS
70
4
0
ENDSEC
0
SECTION
2
TABLES
0
TABLE
2
LTYPE
0
LTYPE
72
65
70
64
2
CONTINUOUS
3
______
73
0
40
0
0
ENDTAB
0
TABLE
2
LAYER
0
ENDTAB
0
ENDSEC
0
SECTION
2
ENTITIES
0
LINE
8
0
10
51.7060271
20
-164.8539005
11
42.1846276
21
-150.7378452
0
LINE
8
0
10
42.7018525
20
-147.9767602
11
61.7989719
21
-134.7138632
0
LINE
8
0
10
62.649245
20
-132.882942
11
59.9842502
21
-104.6910529
0
LINE
8
0
10
61.8010622
20
-102.5104415
11
75.9723448
21
-101.2706149
0
LINE
8
0
10
77.7885352
20
-99.0835387
11
75.9340586
21
-80.1231512
0
LINE
8
0
10
77.750249
20
-77.936075
11
95.4284836
21
-76.3894299
0
LINE
8
0
10
97.2537141
20
-74.4398431
11
97.4264158
21
-66.372008
0
LINE
8
0
10
99.4259577
20
-64.4148106
11
113.1463304
21
-64.4148106
0
LINE
8
0
10
115.1447482
20
-62.4943496
11
115.3918756
21
-56.2852716
0
LINE
8
0
10
117.3902934
20
-54.3648106
11
136.7694931
21
-54.3648106
0
LINE
8
0
10
138.0150629
20
-53.9295968
11
148.9872153
21
-45.1957635
0
LINE
8
0
10
151.0986673
20
-44.9577053
11
176.741443
21
-57.2735904
0
LINE
8
0
10
177.8755275
20
-59.064891
11
178.2621105
21
-126.0403971
0
LINE
8
0
10
179.1675784
20
-127.7027925
11
208.5628108
21
-146.9227521
0
LINE
8
0
10
209.468312
20
-148.5966913
11
209.468312
21
-166.5148106
0
LINE
8
0
10
207.468312
20
-168.5148106
11
187.9865642
21
-168.5148106
0
LINE
8
0
10
187.0152784
20
-168.2631252
11
151.9725692
21
-148.7949535
0
LINE
8
0
10
151.190698
20
-148.0091565
11
138.0379101
21
-124.052293
0
LINE
8
0
10
136.284753
20
-123.0148106
11
116.1006052
21
-123.0148106
0
LINE
8
0
10
114.9509274
20
-123.3782774
11
71.0787819
21
-154.1988131
0
LINE
8
0
10
71.0474898
20
-154.220355
11
54.482488
21
-165.3935898
0
ARC
8
0
10
43.8427027
20
-149.6194594
40
2
50
124.7798754
51
213.999999
0
ARC
8
0
10
60.6581216
20
-133.071164
40
2
50
304.7798754
51
5.4001547
0
ARC
8
0
10
61.9753736
20
-104.5028309
40
2
50
94.9999976
51
185.4001547
0
ARC
8
0
10
75.7980334
20
-99.2782255
40
2
50
274.9999976
51
5.5862118
0
ARC
8
0
10
77.9245604
20
-79.9284644
40
2
50
94.9999976
51
185.5862118
0
ARC
8
0
10
95.2541722
20
-74.3970405
40
2
50
274.9999976
51
358.7737023
0
ARC
8
0
10
99.4259577
20
-66.4148106
40
2
50
90
51
178.7737023
0
ARC
8
0
10
113.1463304
20
-62.4148106
40
2
50
270
51
357.7207745
0
ARC
8
0
10
117.3902934
20
-56.3648106
40
2
50
90
51
177.7207745
0
ARC
8
0
10
136.7694931
20
-52.3648106
40
2
50
270
51
308.5197892
0
ARC
8
0
10
150.2327851
20
-46.7605497
40
2
50
64.3456446
51
128.5197892
0
ARC
8
0
10
175.8755608
20
-59.0764348
40
2
50
0.3307074
51
64.3456446
0
ARC
8
0
10
180.2620772
20
-126.0288533
40
2
50
180.3307074
51
236.8214861
0
ARC
8
0
10
207.468312
20
-148.5966913
40
2
50
0
51
56.8214861
0
ARC
8
0
10
207.468312
20
-166.5148106
40
2
50
270
51
0
0
ARC
8
0
10
187.9865642
20
-166.5148106
40
2
50
240.9453981
51
270
0
ARC
8
0
10
152.9438551
20
-147.0466389
40
2
50
208.7676501
51
240.9453981
0
ARC
8
0
10
136.284753
20
-125.0148106
40
2
50
28.7676501
51
90
0
ARC
8
0
10
116.1006052
20
-125.0148106
40
2
50
90
51
125.0883513
0
ARC
8
0
10
69.9291041
20
-152.5622799
40
2
50
303.999999
51
305.0883513
0
ARC
8
0
10
53.3641022
20
-163.7355147
40
2
50
213.999999
51
303.999999
0
LINE
8
0
10
53.4315634
20
-163.388457
11
67.9397209
21
-153.6025812
0
LINE
8
0
10
67.9397209
20
-153.6025812
11
58.713038
21
-139.9234612
0
LINE
8
0
10
58.713038
20
-139.9234612
11
44.2048805
21
-149.709337
0
LINE
8
0
10
44.2048805
20
-149.709337
11
53.4315634
21
-163.388457
0
LINE
8
0
10
63.6703173
20
-121.1685248
11
81.1037245
21
-119.6432993
0
LINE
8
0
10
81.1037245
20
-119.6432993
11
79.6656547
21
-103.2060868
0
LINE
8
0
10
79.6656547
20
-103.2060868
11
62.2322475
21
-104.7313123
0
LINE
8
0
10
62.2322475
20
-104.7313123
11
63.6703173
21
-121.1685248
0
LINE
8
0
10
82.6677866
20
-131.5113535
11
100.1011938
21
-129.986128
0
LINE
8
0
10
100.1011938
20
-129.986128
11
98.663124
21
-113.5489155
0
LINE
8
0
10
98.663124
20
-113.5489155
11
81.2297168
21
-115.074141
0
LINE
8
0
10
81.2297168
20
-115.074141
11
82.6677866
21
-131.5113535
0
LINE
8
0
10
81.186139
20
-114.5760436
11
98.6195462
21
-113.0508181
0
LINE
8
0
10
98.6195462
20
-113.0508181
11
97.1814764
21
-96.6136056
0
LINE
8
0
10
97.1814764
20
-96.6136056
11
79.7480692
21
-98.1388311
0
LINE
8
0
10
79.7480692
20
-98.1388311
11
81.186139
21
-114.5760436
0
LINE
8
0
10
79.7044914
20
-97.6407337
11
97.1378986
21
-96.1155082
0
LINE
8
0
10
97.1378986
20
-96.1155082
11
95.6998288
21
-79.6782957
0
LINE
8
0
10
95.6998288
20
-79.6782957
11
78.2664216
21
-81.2035212
0
LINE
8
0
10
78.2664216
20
-81.2035212
11
79.7044914
21
-97.6407337
0
LINE
8
0
10
99.7183119
20
-119.2648106
11
117.2183119
21
-119.2648106
0
LINE
8
0
10
117.2183119
20
-119.2648106
11
117.2183119
21
-102.7648106
0
LINE
8
0
10
117.2183119
20
-102.7648106
11
99.7183119
21
-102.7648106
0
LINE
8
0
10
99.7183119
20
-102.7648106
11
99.7183119
21
-119.2648106
0
LINE
8
0
10
99.7183119
20
-102.2648106
11
117.2183119
21
-102.2648106
0
LINE
8
0
10
117.2183119
20
-102.2648106
11
117.2183119
21
-85.7648106
0
LINE
8
0
10
117.2183119
20
-85.7648106
11
99.7183119
21
-85.7648106
0
LINE
8
0
10
99.7183119
20
-85.7648106
11
99.7183119
21
-102.2648106
0
LINE
8
0
10
99.7183119
20
-85.2648106
11
117.2183119
21
-85.2648106
0
LINE
8
0
10
117.2183119
20
-85.2648106
11
117.2183119
21
-68.7648106
0
LINE
8
0
10
117.2183119
20
-68.7648106
11
99.7183119
21
-68.7648106
0
LINE
8
0
10
99.7183119
20
-68.7648106
11
99.7183119
21
-85.2648106
0
LINE
8
0
10
117.7183119
20
-110.2648106
11
135.2183119
21
-110.2648106
0
LINE
8
0
10
135.2183119
20
-110.2648106
11
135.2183119
21
-93.7648106
0
LINE
8
0
10
135.2183119
20
-93.7648106
11
117.7183119
21
-93.7648106
0
LINE
8
0
10
117.7183119
20
-93.7648106
11
117.7183119
21
-110.2648106
0
LINE
8
0
10
117.7183119
20
-93.2648106
11
135.2183119
21
-93.2648106
0
LINE
8
0
10
135.2183119
20
-93.2648106
11
135.2183119
21
-76.7648106
0
LINE
8
0
10
135.2183119
20
-76.7648106
11
117.7183119
21
-76.7648106
0
LINE
8
0
10
117.7183119
20
-76.7648106
11
117.7183119
21
-93.2648106
0
LINE
8
0
10
117.7183119
20
-76.2648106
11
135.2183119
21
-76.2648106
0
LINE
8
0
10
135.2183119
20
-76.2648106
11
135.2183119
21
-59.7648106
0
LINE
8
0
10
135.2183119
20
-59.7648106
11
117.7183119
21
-59.7648106
0
LINE
8
0
10
117.7183119
20
-59.7648106
11
117.7183119
21
-76.2648106
0
LINE
8
0
10
135.7183119
20
-120.2648106
11
153.2183119
21
-120.2648106
0
LINE
8
0
10
153.2183119
20
-120.2648106
11
153.2183119
21
-103.7648106
0
LINE
8
0
10
153.2183119
20
-103.7648106
11
135.7183119
21
-103.7648106
0
LINE
8
0
10
135.7183119
20
-103.7648106
11
135.7183119
21
-120.2648106
0
LINE
8
0
10
135.7183119
20
-103.2648106
11
153.2183119
21
-103.2648106
0
LINE
8
0
10
153.2183119
20
-103.2648106
11
153.2183119
21
-86.7648106
0
LINE
8
0
10
153.2183119
20
-86.7648106
11
135.7183119
21
-86.7648106
0
LINE
8
0
10
135.7183119
20
-86.7648106
11
135.7183119
21
-103.2648106
0
LINE
8
0
10
135.7183119
20
-86.2648106
11
153.2183119
21
-86.2648106
0
LINE
8
0
10
153.2183119
20
-86.2648106
11
153.2183119
21
-69.7648106
0
LINE
8
0
10
153.2183119
20
-69.7648106
11
135.7183119
21
-69.7648106
0
LINE
8
0
10
135.7183119
20
-69.7648106
11
135.7183119
21
-86.2648106
0
LINE
8
0
10
153.718312
20
-125.2648106
11
171.218312
21
-125.2648106
0
LINE
8
0
10
171.218312
20
-125.2648106
11
171.218312
21
-108.7648106
0
LINE
8
0
10
171.218312
20
-108.7648106
11
153.718312
21
-108.7648106
0
LINE
8
0
10
153.718312
20
-108.7648106
11
153.718312
21
-125.2648106
0
LINE
8
0
10
153.718312
20
-108.2648106
11
171.218312
21
-108.2648106
0
LINE
8
0
10
171.218312
20
-108.2648106
11
171.218312
21
-91.7648106
0
LINE
8
0
10
171.218312
20
-91.7648106
11
153.718312
21
-91.7648106
0
LINE
8
0
10
153.718312
20
-91.7648106
11
153.718312
21
-108.2648106
0
LINE
8
0
10
153.718312
20
-91.2648106
11
171.218312
21
-91.2648106
0
LINE
8
0
10
171.218312
20
-91.2648106
11
171.218312
21
-74.7648106
0
LINE
8
0
10
171.218312
20
-74.7648106
11
153.718312
21
-74.7648106
0
LINE
8
0
10
153.718312
20
-74.7648106
11
153.718312
21
-91.2648106
0
LINE
8
0
10
153.718312
20
-146.2648106
11
171.218312
21
-146.2648106
0
LINE
8
0
10
171.218312
20
-146.2648106
11
171.218312
21
-129.7648106
0
LINE
8
0
10
171.218312
20
-129.7648106
11
153.718312
21
-129.7648106
0
LINE
8
0
10
153.718312
20
-129.7648106
11
153.718312
21
-146.2648106
0
LINE
8
0
10
171.718312
20
-154.2648106
11
189.218312
21
-154.2648106
0
LINE
8
0
10
189.218312
20
-154.2648106
11
189.218312
21
-137.7648106
0
LINE
8
0
10
189.218312
20
-137.7648106
11
171.718312
21
-137.7648106
0
LINE
8
0
10
171.718312
20
-137.7648106
11
171.718312
21
-154.2648106
0
LINE
8
0
10
189.718312
20
-166.2648106
11
207.218312
21
-166.2648106
0
LINE
8
0
10
207.218312
20
-166.2648106
11
207.218312
21
-149.7648106
0
LINE
8
0
10
207.218312
20
-149.7648106
11
189.718312
21
-149.7648106
0
LINE
8
0
10
189.718312
20
-149.7648106
11
189.718312
21
-166.2648106
0
ENDSEC
0
EOF