0
SECTION
2
HEADER
9
$INSUNITS
70
4
0
ENDSEC
0
SECTION
2
TABLES
0
TABLE
2
LTYPE
0
LTYPE
72
65
70
64
2
CONTINUOUS
3
______
73
0
40
0
0
ENDTAB
0
TABLE
2
LAYER
0
ENDTAB
0
ENDSEC
0
SECTION
2
ENTITIES
0
LINE
8
0
10
43.5782264
20
-149.2273571
11
58.5009027
21
-139.1618848
0
LINE
8
0
10
58.5009027
20
-139.1618848
11
68.566375
21
-154.0845611
0
LINE
8
0
10
68.566375
20
-154.0845611
11
53.6436987
21
-164.1500334
0
LINE
8
0
10
53.6436987
20
-164.1500334
11
43.5782264
21
-149.2273571
0
LINE
8
0
10
61.917832
20
-104.0059552
11
79.8493366
21
-102.4371518
0
LINE
8
0
10
79.8493366
20
-102.4371518
11
81.41814
21
-120.3686564
0
LINE
8
0
10
81.41814
20
-120.3686564
11
63.4866354
21
-121.9374598
0
LINE
8
0
10
63.4866354
20
-121.9374598
11
61.917832
21
-104.0059552
0
LINE
8
0
10
80.9153013
20
-114.3487839
11
98.8468059
21
-112.7799805
0
LINE
8
0
10
98.8468059
20
-112.7799805
11
100.4156093
21
-130.7114851
0
LINE
8
0
10
100.4156093
20
-130.7114851
11
82.4841047
21
-132.2802885
0
LINE
8
0
10
82.4841047
20
-132.2802885
11
80.9153013
21
-114.3487839
0
LINE
8
0
10
79.4336537
20
-97.413474
11
97.3651583
21
-95.8446706
0
LINE
8
0
10
97.3651583
20
-95.8446706
11
98.9339617
21
-113.7761752
0
LINE
8
0
10
98.9339617
20
-113.7761752
11
81.0024571
21
-115.3449786
0
LINE
8
0
10
81.0024571
20
-115.3449786
11
79.4336537
21
-97.413474
0
LINE
8
0
10
77.9520061
20
-80.4781641
11
95.8835107
21
-78.9093607
0
LINE
8
0
10
95.8835107
20
-78.9093607
11
97.4523141
21
-96.8408653
0
LINE
8
0
10
97.4523141
20
-96.8408653
11
79.5208095
21
-98.4096687
0
LINE
8
0
10
79.5208095
20
-98.4096687
11
77.9520061
21
-80.4781641
0
LINE
8
0
10
99.4683119
20
-102.0148106
11
117.4683119
21
-102.0148106
0
LINE
8
0
10
117.4683119
20
-102.0148106
11
117.4683119
21
-120.0148106
0
LINE
8
0
10
117.4683119
20
-120.0148106
11
99.4683119
21
-120.0148106
0
LINE
8
0
10
99.4683119
20
-120.0148106
11
99.4683119
21
-102.0148106
0
LINE
8
0
10
99.4683119
20
-85.0148106
11
117.4683119
21
-85.0148106
0
LINE
8
0
10
117.4683119
20
-85.0148106
11
117.4683119
21
-103.0148106
0
LINE
8
0
10
117.4683119
20
-103.0148106
11
99.4683119
21
-103.0148106
0
LINE
8
0
10
99.4683119
20
-103.0148106
11
99.4683119
21
-85.0148106
0
LINE
8
0
10
99.4683119
20
-68.0148106
11
117.4683119
21
-68.0148106
0
LINE
8
0
10
117.4683119
20
-68.0148106
11
117.4683119
21
-86.0148106
0
LINE
8
0
10
117.4683119
20
-86.0148106
11
99.4683119
21
-86.0148106
0
LINE
8
0
10
99.4683119
20
-86.0148106
11
99.4683119
21
-68.0148106
0
LINE
8
0
10
117.4683119
20
-93.0148106
11
135.4683119
21
-93.0148106
0
LINE
8
0
10
135.4683119
20
-93.0148106
11
135.4683119
21
-111.0148106
0
LINE
8
0
10
135.4683119
20
-111.0148106
11
117.4683119
21
-111.0148106
0
LINE
8
0
10
117.4683119
20
-111.0148106
11
117.4683119
21
-93.0148106
0
LINE
8
0
10
117.4683119
20
-76.0148106
11
135.4683119
21
-76.0148106
0
LINE
8
0
10
135.4683119
20
-76.0148106
11
135.4683119
21
-94.0148106
0
LINE
8
0
10
135.4683119
20
-94.0148106
11
117.4683119
21
-94.0148106
0
LINE
8
0
10
117.4683119
20
-94.0148106
11
117.4683119
21
-76.0148106
0
LINE
8
0
10
117.4683119
20
-59.0148106
11
135.4683119
21
-59.0148106
0
LINE
8
0
10
135.4683119
20
-59.0148106
11
135.4683119
21
-77.0148106
0
LINE
8
0
10
135.4683119
20
-77.0148106
11
117.4683119
21
-77.0148106
0
LINE
8
0
10
117.4683119
20
-77.0148106
11
117.4683119
21
-59.0148106
0
LINE
8
0
10
135.4683119
20
-103.0148106
11
153.4683119
21
-103.0148106
0
LINE
8
0
10
153.4683119
20
-103.0148106
11
153.4683119
21
-121.0148106
0
LINE
8
0
10
153.4683119
20
-121.0148106
11
135.4683119
21
-121.0148106
0
LINE
8
0
10
135.4683119
20
-121.0148106
11
135.4683119
21
-103.0148106
0
LINE
8
0
10
135.4683119
20
-86.0148106
11
153.4683119
21
-86.0148106
0
LINE
8
0
10
153.4683119
20
-86.0148106
11
153.4683119
21
-104.0148106
0
LINE
8
0
10
153.4683119
20
-104.0148106
11
135.4683119
21
-104.0148106
0
LINE
8
0
10
135.4683119
20
-104.0148106
11
135.4683119
21
-86.0148106
0
LINE
8
0
10
135.4683119
20
-69.0148106
11
153.4683119
21
-69.0148106
0
LINE
8
0
10
153.4683119
20
-69.0148106
11
153.4683119
21
-87.0148106
0
LINE
8
0
10
153.4683119
20
-87.0148106
11
135.4683119
21
-87.0148106
0
LINE
8
0
10
135.4683119
20
-87.0148106
11
135.4683119
21
-69.0148106
0
LINE
8
0
10
153.468312
20
-108.0148106
11
171.468312
21
-108.0148106
0
LINE
8
0
10
171.468312
20
-108.0148106
11
171.468312
21
-126.0148106
0
LINE
8
0
10
171.468312
20
-126.0148106
11
153.468312
21
-126.0148106
0
LINE
8
0
10
153.468312
20
-126.0148106
11
153.468312
21
-108.0148106
0
LINE
8
0
10
153.468312
20
-91.0148106
11
171.468312
21
-91.0148106
0
LINE
8
0
10
171.468312
20
-91.0148106
11
171.468312
21
-109.0148106
0
LINE
8
0
10
171.468312
20
-109.0148106
11
153.468312
21
-109.0148106
0
LINE
8
0
10
153.468312
20
-109.0148106
11
153.468312
21
-91.0148106
0
LINE
8
0
10
153.468312
20
-74.0148106
11
171.468312
21
-74.0148106
0
LINE
8
0
10
171.468312
20
-74.0148106
11
171.468312
21
-92.0148106
0
LINE
8
0
10
171.468312
20
-92.0148106
11
153.468312
21
-92.0148106
0
LINE
8
0
10
153.468312
20
-92.0148106
11
153.468312
21
-74.0148106
0
LINE
8
0
10
153.468312
20
-129.0148106
11
171.468312
21
-129.0148106
0
LINE
8
0
10
171.468312
20
-129.0148106
11
171.468312
21
-147.0148106
0
LINE
8
0
10
171.468312
20
-147.0148106
11
153.468312
21
-147.0148106
0
LINE
8
0
10
153.468312
20
-147.0148106
11
153.468312
21
-129.0148106
0
LINE
8
0
10
171.468312
20
-137.0148106
11
189.468312
21
-137.0148106
0
LINE
8
0
10
189.468312
20
-137.0148106
11
189.468312
21
-155.0148106
0
LINE
8
0
10
189.468312
20
-155.0148106
11
171.468312
21
-155.0148106
0
LINE
8
0
10
171.468312
20
-155.0148106
11
171.468312
21
-137.0148106
0
LINE
8
0
10
189.468312
20
-149.0148106
11
207.468312
21
-149.0148106
0
LINE
8
0
10
207.468312
20
-149.0148106
11
207.468312
21
-167.0148106
0
LINE
8
0
10
207.468312
20
-167.0148106
11
189.468312
21
-167.0148106
0
LINE
8
0
10
189.468312
20
-167.0148106
11
189.468312
21
-149.0148106
0
ENDSEC
0
EOF