0
SECTION
2
HEADER
9
$INSUNITS
70
4
0
ENDSEC
0
SECTION
2
TABLES
0
TABLE
2
LTYPE
0
LTYPE
72
65
70
64
2
CONTINUOUS
3
______
73
0
40
0
0
ENDTAB
0
TABLE
2
LAYER
0
ENDTAB
0
ENDSEC
0
SECTION
2
ENTITIES
0
LINE
8
0
10
53.4315634
20
-163.388457
11
67.9397209
21
-153.6025812
0
LINE
8
0
10
67.9397209
20
-153.6025812
11
58.713038
21
-139.9234612
0
LINE
8
0
10
58.713038
20
-139.9234612
11
44.2048805
21
-149.709337
0
LINE
8
0
10
44.2048805
20
-149.709337
11
53.4315634
21
-163.388457
0
LINE
8
0
10
63.6703173
20
-121.1685248
11
81.1037245
21
-119.6432993
0
LINE
8
0
10
81.1037245
20
-119.6432993
11
79.6656547
21
-103.2060868
0
LINE
8
0
10
79.6656547
20
-103.2060868
11
62.2322475
21
-104.7313123
0
LINE
8
0
10
62.2322475
20
-104.7313123
11
63.6703173
21
-121.1685248
0
LINE
8
0
10
82.6677866
20
-131.5113535
11
100.1011938
21
-129.986128
0
LINE
8
0
10
100.1011938
20
-129.986128
11
98.663124
21
-113.5489155
0
LINE
8
0
10
98.663124
20
-113.5489155
11
81.2297168
21
-115.074141
0
LINE
8
0
10
81.2297168
20
-115.074141
11
82.6677866
21
-131.5113535
0
LINE
8
0
10
81.186139
20
-114.5760436
11
98.6195462
21
-113.0508181
0
LINE
8
0
10
98.6195462
20
-113.0508181
11
97.1814764
21
-96.6136056
0
LINE
8
0
10
97.1814764
20
-96.6136056
11
79.7480692
21
-98.1388311
0
LINE
8
0
10
79.7480692
20
-98.1388311
11
81.186139
21
-114.5760436
0
LINE
8
0
10
79.7044914
20
-97.6407337
11
97.1378986
21
-96.1155082
0
LINE
8
0
10
97.1378986
20
-96.1155082
11
95.6998288
21
-79.6782957
0
LINE
8
0
10
95.6998288
20
-79.6782957
11
78.2664216
21
-81.2035212
0
LINE
8
0
10
78.2664216
20
-81.2035212
11
79.7044914
21
-97.6407337
0
LINE
8
0
10
99.7183119
20
-119.2648106
11
117.2183119
21
-119.2648106
0
LINE
8
0
10
117.2183119
20
-119.2648106
11
117.2183119
21
-102.7648106
0
LINE
8
0
10
117.2183119
20
-102.7648106
11
99.7183119
21
-102.7648106
0
LINE
8
0
10
99.7183119
20
-102.7648106
11
99.7183119
21
-119.2648106
0
LINE
8
0
10
99.7183119
20
-102.2648106
11
117.2183119
21
-102.2648106
0
LINE
8
0
10
117.2183119
20
-102.2648106
11
117.2183119
21
-85.7648106
0
LINE
8
0
10
117.2183119
20
-85.7648106
11
99.7183119
21
-85.7648106
0
LINE
8
0
10
99.7183119
20
-85.7648106
11
99.7183119
21
-102.2648106
0
LINE
8
0
10
99.7183119
20
-85.2648106
11
117.2183119
21
-85.2648106
0
LINE
8
0
10
117.2183119
20
-85.2648106
11
117.2183119
21
-68.7648106
0
LINE
8
0
10
117.2183119
20
-68.7648106
11
99.7183119
21
-68.7648106
0
LINE
8
0
10
99.7183119
20
-68.7648106
11
99.7183119
21
-85.2648106
0
LINE
8
0
10
117.7183119
20
-110.2648106
11
135.2183119
21
-110.2648106
0
LINE
8
0
10
135.2183119
20
-110.2648106
11
135.2183119
21
-93.7648106
0
LINE
8
0
10
135.2183119
20
-93.7648106
11
117.7183119
21
-93.7648106
0
LINE
8
0
10
117.7183119
20
-93.7648106
11
117.7183119
21
-110.2648106
0
LINE
8
0
10
117.7183119
20
-93.2648106
11
135.2183119
21
-93.2648106
0
LINE
8
0
10
135.2183119
20
-93.2648106
11
135.2183119
21
-76.7648106
0
LINE
8
0
10
135.2183119
20
-76.7648106
11
117.7183119
21
-76.7648106
0
LINE
8
0
10
117.7183119
20
-76.7648106
11
117.7183119
21
-93.2648106
0
LINE
8
0
10
117.7183119
20
-76.2648106
11
135.2183119
21
-76.2648106
0
LINE
8
0
10
135.2183119
20
-76.2648106
11
135.2183119
21
-59.7648106
0
LINE
8
0
10
135.2183119
20
-59.7648106
11
117.7183119
21
-59.7648106
0
LINE
8
0
10
117.7183119
20
-59.7648106
11
117.7183119
21
-76.2648106
0
LINE
8
0
10
135.7183119
20
-120.2648106
11
153.2183119
21
-120.2648106
0
LINE
8
0
10
153.2183119
20
-120.2648106
11
153.2183119
21
-103.7648106
0
LINE
8
0
10
153.2183119
20
-103.7648106
11
135.7183119
21
-103.7648106
0
LINE
8
0
10
135.7183119
20
-103.7648106
11
135.7183119
21
-120.2648106
0
LINE
8
0
10
135.7183119
20
-103.2648106
11
153.2183119
21
-103.2648106
0
LINE
8
0
10
153.2183119
20
-103.2648106
11
153.2183119
21
-86.7648106
0
LINE
8
0
10
153.2183119
20
-86.7648106
11
135.7183119
21
-86.7648106
0
LINE
8
0
10
135.7183119
20
-86.7648106
11
135.7183119
21
-103.2648106
0
LINE
8
0
10
135.7183119
20
-86.2648106
11
153.2183119
21
-86.2648106
0
LINE
8
0
10
153.2183119
20
-86.2648106
11
153.2183119
21
-69.7648106
0
LINE
8
0
10
153.2183119
20
-69.7648106
11
135.7183119
21
-69.7648106
0
LINE
8
0
10
135.7183119
20
-69.7648106
11
135.7183119
21
-86.2648106
0
LINE
8
0
10
153.718312
20
-125.2648106
11
171.218312
21
-125.2648106
0
LINE
8
0
10
171.218312
20
-125.2648106
11
171.218312
21
-108.7648106
0
LINE
8
0
10
171.218312
20
-108.7648106
11
153.718312
21
-108.7648106
0
LINE
8
0
10
153.718312
20
-108.7648106
11
153.718312
21
-125.2648106
0
LINE
8
0
10
153.718312
20
-108.2648106
11
171.218312
21
-108.2648106
0
LINE
8
0
10
171.218312
20
-108.2648106
11
171.218312
21
-91.7648106
0
LINE
8
0
10
171.218312
20
-91.7648106
11
153.718312
21
-91.7648106
0
LINE
8
0
10
153.718312
20
-91.7648106
11
153.718312
21
-108.2648106
0
LINE
8
0
10
153.718312
20
-91.2648106
11
171.218312
21
-91.2648106
0
LINE
8
0
10
171.218312
20
-91.2648106
11
171.218312
21
-74.7648106
0
LINE
8
0
10
171.218312
20
-74.7648106
11
153.718312
21
-74.7648106
0
LINE
8
0
10
153.718312
20
-74.7648106
11
153.718312
21
-91.2648106
0
LINE
8
0
10
153.718312
20
-146.2648106
11
171.218312
21
-146.2648106
0
LINE
8
0
10
171.218312
20
-146.2648106
11
171.218312
21
-129.7648106
0
LINE
8
0
10
171.218312
20
-129.7648106
11
153.718312
21
-129.7648106
0
LINE
8
0
10
153.718312
20
-129.7648106
11
153.718312
21
-146.2648106
0
LINE
8
0
10
171.718312
20
-154.2648106
11
189.218312
21
-154.2648106
0
LINE
8
0
10
189.218312
20
-154.2648106
11
189.218312
21
-137.7648106
0
LINE
8
0
10
189.218312
20
-137.7648106
11
171.718312
21
-137.7648106
0
LINE
8
0
10
171.718312
20
-137.7648106
11
171.718312
21
-154.2648106
0
LINE
8
0
10
189.718312
20
-166.2648106
11
207.218312
21
-166.2648106
0
LINE
8
0
10
207.218312
20
-166.2648106
11
207.218312
21
-149.7648106
0
LINE
8
0
10
207.218312
20
-149.7648106
11
189.718312
21
-149.7648106
0
LINE
8
0
10
189.718312
20
-149.7648106
11
189.718312
21
-166.2648106
0
ENDSEC
0
EOF