0
SECTION
2
HEADER
9
$INSUNITS
70
4
0
ENDSEC
0
SECTION
2
TABLES
0
TABLE
2
LTYPE
0
LTYPE
72
65
70
64
2
CONTINUOUS
3
______
73
0
40
0
0
ENDTAB
0
TABLE
2
LAYER
0
ENDTAB
0
ENDSEC
0
SECTION
2
ENTITIES
0
LINE
8
0
10
52.8244129
20
-166.5119756
11
71.0632395
21
-154.2097317
0
LINE
8
0
10
71.0632395
20
-154.2097317
11
59.3201885
21
-136.7999426
0
LINE
8
0
10
59.3201885
20
-136.7999426
11
41.0813619
21
-149.1021865
0
LINE
8
0
10
41.0813619
20
-149.1021865
11
52.8244129
21
-166.5119756
0
LINE
8
0
10
61.6249796
20
-123.6060633
11
79.5801351
21
-122.0351908
0
LINE
8
0
10
77.7498645
20
-101.1151021
11
59.794709
21
-102.6859746
0
LINE
8
0
10
59.794709
20
-102.6859746
11
61.6249796
21
-123.6060633
0
LINE
8
0
10
80.6224489
20
-133.948892
11
102.5387323
21
-132.0314657
0
LINE
8
0
10
102.5387323
20
-132.0314657
11
101.6186442
21
-121.5148106
0
LINE
8
0
10
79.5801351
20
-122.0351908
11
80.6224489
21
-133.948892
0
LINE
8
0
10
75.8288831
20
-79.1581835
11
77.7498645
21
-101.1151021
0
LINE
8
0
10
97.4683119
20
-77.2649788
11
75.8288831
21
-79.1581835
0
LINE
8
0
10
101.6186442
20
-121.5148106
11
119.4683119
21
-121.5148106
0
LINE
8
0
10
119.4683119
20
-121.5148106
11
119.4683119
21
-112.5148106
0
LINE
8
0
10
115.4683119
20
-66.5148106
11
97.4683119
21
-66.5148106
0
LINE
8
0
10
97.4683119
20
-66.5148106
11
97.4683119
21
-77.2649788
0
LINE
8
0
10
119.4683119
20
-112.5148106
11
133.4683119
21
-112.5148106
0
LINE
8
0
10
137.4683119
20
-67.5148106
11
137.4683119
21
-57.5148106
0
LINE
8
0
10
137.4683119
20
-57.5148106
11
115.4683119
21
-57.5148106
0
LINE
8
0
10
115.4683119
20
-57.5148106
11
115.4683119
21
-66.5148106
0
LINE
8
0
10
133.4683119
20
-122.5148106
11
151.468312
21
-122.5148106
0
LINE
8
0
10
133.4683119
20
-112.5148106
11
133.4683119
21
-122.5148106
0
LINE
8
0
10
155.4683119
20
-72.5148106
11
155.4683119
21
-67.5148106
0
LINE
8
0
10
155.4683119
20
-67.5148106
11
137.4683119
21
-67.5148106
0
LINE
8
0
10
173.468312
20
-135.5148106
11
173.468312
21
-72.5148106
0
LINE
8
0
10
151.468312
20
-148.5148106
11
151.468312
21
-122.5148106
0
LINE
8
0
10
173.468312
20
-72.5148106
11
155.4683119
21
-72.5148106
0
LINE
8
0
10
151.468312
20
-148.5148106
11
169.468312
21
-148.5148106
0
LINE
8
0
10
169.468312
20
-156.5148106
11
187.468312
21
-156.5148106
0
LINE
8
0
10
191.468312
20
-147.5148106
11
191.468312
21
-135.5148106
0
LINE
8
0
10
191.468312
20
-135.5148106
11
173.468312
21
-135.5148106
0
LINE
8
0
10
169.468312
20
-148.5148106
11
169.468312
21
-156.5148106
0
LINE
8
0
10
187.468312
20
-168.5148106
11
209.468312
21
-168.5148106
0
LINE
8
0
10
209.468312
20
-168.5148106
11
209.468312
21
-147.5148106
0
LINE
8
0
10
209.468312
20
-147.5148106
11
191.468312
21
-147.5148106
0
LINE
8
0
10
187.468312
20
-156.5148106
11
187.468312
21
-168.5148106
0
ENDSEC
0
EOF